HIERARCHY
ROOT Hips
{
	OFFSET -0.001795 -0.223333 0.028219
	CHANNELS 6 Xposition Yposition Zposition Zrotation Yrotation Xrotation 
	JOINT LeftUpLeg
	{
		OFFSET 0.069520 -0.091406 -0.006815
		CHANNELS 3 Zrotation Yrotation Xrotation
		JOINT LeftLeg
		{
			OFFSET 0.034277 -0.375199 -0.004496
			CHANNELS 3 Zrotation Yrotation Xrotation
			JOINT LeftFoot
			{
				OFFSET -0.013596 -0.397961 -0.043693
				CHANNELS 3 Zrotation Yrotation Xrotation
				JOINT LeftToe
				{
					OFFSET 0.026358 -0.055791 0.119288
					CHANNELS 3 Zrotation Yrotation Xrotation
					End Site
					{
						OFFSET 0.000000 0.000000 0.000000
					}
				}
			}
		}
	}
	JOINT RightUpLeg
	{
		OFFSET -0.067670 -0.090522 -0.004320
		CHANNELS 3 Zrotation Yrotation Xrotation
		JOINT RightLeg
		{
			OFFSET -0.038290 -0.382569 -0.008850
			CHANNELS 3 Zrotation Yrotation Xrotation
			JOINT RightFoot
			{
				OFFSET 0.015774 -0.398415 -0.042312
				CHANNELS 3 Zrotation Yrotation Xrotation
				JOINT RightToe
				{
					OFFSET -0.025372 -0.048144 0.123348
					CHANNELS 3 Zrotation Yrotation Xrotation
					End Site
					{
						OFFSET 0.000000 0.000000 0.000000
					}
				}
			}
		}
	}
	JOINT Spine
	{
		OFFSET -0.002533 0.108963 -0.026696
		CHANNELS 3 Zrotation Yrotation Xrotation
		JOINT Spine1
		{
			OFFSET 0.005487 0.135180 0.001092
			CHANNELS 3 Zrotation Yrotation Xrotation
			JOINT Spine2
			{
				OFFSET 0.001457 0.052922 0.025425
				CHANNELS 3 Zrotation Yrotation Xrotation
				JOINT Neck
				{
					OFFSET -0.002778 0.213870 -0.042857
					CHANNELS 3 Zrotation Yrotation Xrotation
					JOINT Head
					{
						OFFSET 0.005152 0.064970 0.051349
						CHANNELS 3 Zrotation Yrotation Xrotation
						End Site
						{
							OFFSET 0.000000 0.000000 0.000000
						}
					}
				}
				JOINT LeftShoulder
				{
					OFFSET 0.078845 0.121749 -0.034090
					CHANNELS 3 Zrotation Yrotation Xrotation
					JOINT LeftArm
					{
						OFFSET 0.090977 0.030469 -0.008868
						CHANNELS 3 Zrotation Yrotation Xrotation
						JOINT LeftForeArm
						{
							OFFSET 0.259612 -0.012772 -0.027456
							CHANNELS 3 Zrotation Yrotation Xrotation
							JOINT LeftHand
							{
								OFFSET 0.249234 0.008986 -0.001171
								CHANNELS 3 Zrotation Yrotation Xrotation
								End Site
								{
									OFFSET 0.000000 0.000000 0.000000
								}
							}
						}
					}
				}
				JOINT RightShoulder
				{
					OFFSET -0.081759 0.118833 -0.038615
					CHANNELS 3 Zrotation Yrotation Xrotation
					JOINT RightArm
					{
						OFFSET -0.096012 0.032551 -0.009143
						CHANNELS 3 Zrotation Yrotation Xrotation
						JOINT RightForeArm
						{
							OFFSET -0.253742 -0.013329 -0.021401
							CHANNELS 3 Zrotation Yrotation Xrotation
							JOINT RightHand
							{
								OFFSET -0.255298 0.007772 -0.005559
								CHANNELS 3 Zrotation Yrotation Xrotation
								End Site
								{
									OFFSET 0.000000 0.000000 0.000000
								}
							}
						}
					}
				}
			}
		}
	}
}
MOTION
Frames: 9
Frame Time: 0.050000
0.000000 0.947549 0.000000 0.175464 -5.111885 6.260491 6.225532 -0.277436 -4.757501 1.472711 -0.154263 -0.360192 6.563993 15.817688 30.715719 0.000000 0.000000 0.000000 -3.872188 0.620717 -6.544501 -2.996305 0.105151 -2.722230 -2.750718 -13.115289 23.018575 0.000000 0.000000 0.000000 4.664565 0.155291 -3.375340 -3.114968 1.498763 0.761372 -4.602779 3.186525 0.513226 7.180233 -4.631513 -5.703977 0.000000 0.000000 0.000000 -6.492486 -25.303348 9.640779 -35.601227 -48.858694 10.451206 10.722048 -49.051547 -3.097502 0.000000 0.000000 0.000000 -2.144543 17.957020 6.153939 22.973918 51.413821 6.732117 -44.703752 56.247775 -21.471492 0.000000 0.000000 0.000000 
-0.001950 0.947979 -0.000099 -0.126722 -5.536030 6.678222 6.404440 -0.264413 -4.513751 1.884570 -0.152664 -1.351609 6.734397 15.961642 31.152286 0.000000 0.000000 0.000000 -3.149504 0.672564 -7.104006 -3.515831 0.146249 -2.630077 -2.498440 -12.850976 23.089835 0.000000 0.000000 0.000000 4.863419 0.165165 -3.526309 -2.645059 1.245361 -0.600190 -5.763049 4.132679 1.001753 9.342940 -6.253500 -5.395394 0.000000 0.000000 0.000000 -7.272021 -24.617057 9.306312 -35.018606 -48.417514 9.989392 6.384947 -48.410884 -1.216504 0.000000 0.000000 0.000000 -1.305847 17.370265 6.071022 24.133743 54.028392 7.910321 -40.332334 55.454198 -18.495162 0.000000 0.000000 0.000000 
-0.003240 0.948365 -0.000641 0.047049 -5.288608 6.204477 6.349592 -0.279885 -5.070861 1.830196 -0.228235 0.341228 6.566697 15.818499 31.149908 0.000000 0.000000 0.000000 -3.534223 0.618369 -6.478826 -2.966410 0.095837 -2.820639 -2.612527 -12.962103 23.107027 0.000000 0.000000 0.000000 5.789113 0.074316 -2.461503 -3.040139 1.418156 -1.130096 -6.631901 5.034623 0.593118 9.223091 -6.545588 -3.506384 0.000000 0.000000 0.000000 -9.089708 -25.258565 9.596280 -34.441983 -47.389554 9.445108 3.640582 -48.682345 -0.151724 0.000000 0.000000 0.000000 -0.787242 17.350179 6.178656 24.319272 54.994526 8.414963 -38.056859 55.640020 -17.117821 0.000000 0.000000 0.000000 
-0.004089 0.948810 -0.001504 0.055476 -4.243037 6.827499 6.632602 -0.311162 -5.570566 1.635145 -0.163417 -0.492355 5.975519 15.315722 31.066503 0.000000 0.000000 0.000000 -3.313735 0.650283 -6.905061 -3.182668 0.101989 -3.024812 -3.142750 -13.620990 23.582002 0.000000 0.000000 0.000000 5.977340 0.124847 -3.151878 -3.231601 1.509669 -0.963063 -7.180479 4.641479 0.664536 10.617952 -7.548014 -3.734438 0.000000 0.000000 0.000000 -8.434065 -26.222809 9.910402 -33.736431 -47.806955 9.287312 2.540216 -48.951249 0.330529 0.000000 0.000000 0.000000 -1.290868 17.508830 6.193773 22.968809 56.299649 8.141995 -37.523858 54.423958 -16.338370 0.000000 0.000000 0.000000 
-0.004459 0.949166 -0.002329 0.170161 -3.853717 6.563122 6.425385 -0.320524 -5.603619 1.887731 -0.204306 -0.200977 5.726191 15.103317 31.045872 0.000000 0.000000 0.000000 -3.356821 0.637992 -6.805284 -3.229992 0.131901 -2.662108 -3.350478 -13.859428 23.649018 0.000000 0.000000 0.000000 5.978911 0.090269 -2.760839 -3.373037 1.571614 -1.159079 -7.710192 5.132034 0.805582 11.384009 -8.041514 -4.080924 0.000000 0.000000 0.000000 -8.659972 -26.783191 10.048984 -33.314438 -46.649879 8.741516 1.226393 -50.371412 0.841234 0.000000 0.000000 0.000000 -1.335386 17.551868 6.237700 22.445068 57.371751 8.259751 -36.296033 53.372906 -15.214933 0.000000 0.000000 0.000000 
-0.004538 0.949923 -0.003071 0.039693 -4.049520 6.860351 6.311453 -0.326840 -5.641030 2.315834 -0.226044 -0.695418 5.778567 15.151902 31.373288 0.000000 0.000000 0.000000 -3.515974 0.649895 -6.940162 -2.699650 0.060932 -3.150972 -3.170533 -13.685819 24.007150 0.000000 0.000000 0.000000 6.343945 0.077567 -2.691218 -3.778338 1.749967 -1.426100 -7.695012 5.777006 0.843275 11.893110 -8.389782 -4.217505 0.000000 0.000000 0.000000 -9.049982 -26.536504 9.896986 -33.110736 -46.055499 8.481275 0.550063 -52.314687 1.123237 0.000000 0.000000 0.000000 -2.310384 18.472711 6.455127 20.186136 58.210602 7.426400 -34.252315 50.803176 -13.317658 0.000000 0.000000 0.000000 
-0.004443 0.950052 -0.003447 0.119548 -3.827285 7.010880 6.243368 -0.335973 -5.686460 2.317153 -0.206124 -1.052291 5.640385 15.035463 31.385580 0.000000 0.000000 0.000000 -3.602541 0.659734 -7.092680 -2.694872 0.061168 -3.153048 -3.292206 -13.834531 24.116294 0.000000 0.000000 0.000000 6.225387 0.077753 -2.729714 -4.079132 1.886246 -1.461053 -7.774896 6.372146 0.624094 12.712263 -8.784758 -4.949914 0.000000 0.000000 0.000000 -9.267079 -26.342603 9.695097 -33.319053 -44.288604 8.043445 0.299767 -55.790972 1.164154 0.000000 0.000000 0.000000 -2.608777 19.010905 6.633995 18.214636 58.660787 6.665114 -32.232426 48.509377 -11.635637 0.000000 0.000000 0.000000 
-0.004557 0.950810 -0.003575 -0.000680 -4.065156 6.986546 6.207774 -0.320000 -5.291903 2.573091 -0.202683 -1.602720 5.690600 15.075644 31.687529 0.000000 0.000000 0.000000 -3.557002 0.643951 -6.845016 -2.539727 0.020379 -3.635801 -3.075221 -13.609288 24.410861 0.000000 0.000000 0.000000 6.477012 0.073053 -2.676772 -4.534867 2.091156 -1.564017 -7.653277 7.223231 0.430074 13.263099 -9.183804 -4.962035 0.000000 0.000000 0.000000 -9.486504 -25.917622 9.389604 -33.528146 -42.831194 7.701065 -0.070543 -58.601971 1.244665 0.000000 0.000000 0.000000 -3.489581 19.586491 6.717566 16.355630 59.444165 6.026598 -29.484997 46.124302 -9.788320 0.000000 0.000000 0.000000 
-0.004714 0.950828 -0.003528 -0.126455 -3.907107 6.929936 6.428670 -0.312109 -5.212886 2.474990 -0.188773 -1.668439 5.612779 15.010210 31.614591 0.000000 0.000000 0.000000 -3.301597 0.629518 -6.633296 -2.981291 0.034088 -3.882386 -2.612014 -12.977115 24.743311 0.000000 0.000000 0.000000 6.507082 0.055457 -2.500446 -4.683372 2.166981 -1.349484 -7.859377 7.813834 -0.094191 13.822884 -9.472708 -5.285511 0.000000 0.000000 0.000000 -9.697800 -25.554075 9.087680 -33.637616 -41.837339 7.489348 0.080786 -61.659413 0.993959 0.000000 0.000000 0.000000 -3.737112 20.217325 6.930792 15.219100 60.039804 5.711714 -27.301289 43.622753 -8.293945 0.000000 0.000000 0.000000 
